<?xml version="1.0" encoding="utf-8"?>
<!-- Generator: Adobe Illustrator 19.0.0, SVG Export Plug-In . SVG Version: 6.00 Build 0)  -->
<svg version="1.1" id="Layer_1" xmlns="http://www.w3.org/2000/svg" xmlns:xlink="http://www.w3.org/1999/xlink" x="0px" y="0px"
	 viewBox="0 0 500 500" style="enable-background:new 0 0 500 500;" xml:space="preserve">
<style type="text/css">
	.st0{fill:#010101;}
	.st1{fill:#1B1A1B;}
	.st2{fill:#BFBFBF;}
	.st3{fill:#FFFFFF;}
	.st4{fill:#999999;}
	.st5{fill:#F3F3F3;}
</style>
<g id="XMLID_1_">
	<path id="XMLID_2_" class="st0" d="M107.5,384.4c4.8-2.1,9.9-3.2,14.9-3.2c4.7,0,7.7,1.2,9.4,3.6c3.6-2.4,8.5-3.6,12.4-3.6
		c11.4,0,11.8,4.6,11.8,18.3v30.1c0,1.4,0.2,1.4-5.5,1.4v-32.1c0-9.8-0.2-12.8-6.7-12.8c-2.9,0-5.9,0.7-9.1,2.8v41.4
		c-0.1,0.4-0.3,0.5-1,0.6c-0.1,0-0.2,0.1-0.3,0.1h-4.2v-32.1c0-9.5,0-12.9-6.8-12.9c-2.9,0-5.8,0.6-9.2,2.2v41.4
		c0,1.4,0.2,1.4-5.5,1.4L107.5,384.4 M183,381.2c-8.5,0-18,2.4-18,28.2c0,19.9,6.9,23,16.5,23c7.3,0,13.7-2.4,13.7-3.6
		c0-1.4-0.2-3.7-0.7-4.9c-3.1,2.1-7.5,3.3-12.5,3.3c-6.7,0-11.2-1.9-11.3-16.9c4.4,0,15.7-0.1,24-1.7c0.7-3.2,1-7.8,1-11.9
		C195.6,387,191.7,381.2,183,381.2 M182.5,386.1c6,0,7.6,4,7.7,11.7c0,2-0.1,4.4-0.4,6.8c-5.6,1.4-15.2,1.4-19.2,1.4
		C171.3,388.3,177.4,386.1,182.5,386.1 M204.4,385.5c4.7-3.1,9-4.2,13.5-4.2c4.9,0,7.2,1.4,7.2,3c0,1-0.3,2.6-0.8,3.6
		c-1.4-0.8-3-1.4-5.6-1.4c-3.2,0-6.2,0.9-8.6,3v40.3c0,1.4,0.1,1.4-5.6,1.4V385.5 M255.1,384.4c0-1.3-4.2-3.2-8.4-3.2
		c-8.1,0-18.1,2.8-18.1,26.6c0,22.6,6,24.6,16.6,24.6c5.2,0,9.9-2.8,9.9-4.3c0-0.9-0.2-2.2-0.7-3.4c-2.1,1.5-5.3,3-8.7,3
		c-7.2,0-11.4-2-11.4-19.6c0-19.4,6.9-22.1,13-22.1c3.4,0,5.3,1,7.2,2.2C254.9,387.1,255.1,385.5,255.1,384.4 M293.5,429.3
		c-4.4,2.2-10.2,3.1-15.3,3.1c-12.9,0-14.8-5.4-14.8-18.2v-30.2c0-1.3-0.1-1.3,5.6-1.3v32.1c0,9.7,1.4,12.9,8.9,12.9
		c2.9,0,6.9-0.6,9.9-2.3v-41.4c0-1.3-0.2-1.3,5.5-1.3V429.3 M305,385.5c4.7-3.1,9-4.2,13.5-4.2c4.9,0,7.2,1.4,7.2,3
		c0,1-0.3,2.6-0.8,3.6c-1.4-0.8-3-1.4-5.6-1.4c-3.2,0-6.2,0.9-8.6,3v40.3c0,1.4,0.1,1.4-5.6,1.4V385.5 M338.6,382.7
		c-4.4,0-5.7,0-5.7,2.6V431c5.6,0,5.7,0,5.7-1.4V382.7 M332.6,365.7c0,3.2,1,4.3,3,4.4c2.3,0,3.4-1.6,3.4-4.5c0.1-3-0.7-4.3-3-4.3
		C333.9,361.2,332.7,362.9,332.6,365.7 M348.1,385.5c0-1.1,0.2-1.6,0.6-1.9c1.9-1.1,9.2-2.3,17.6-2.3c6.3,0,10.3,3,10.3,11.7v6.3
		c0,17.2-0.5,30-0.5,30c-2.3,1.3-6.6,3.2-13.7,3.2c-7.2,0.1-14.5-0.6-14.5-14.9c0-13.6,7.4-15.7,14.9-15.7c2.8,0,6.1,0.3,8.3,1.2v-9
		c0-6.3-3.2-7.6-7-7.6c-5.1,0-12.2,1-15.4,2.4C348.2,387.7,348.1,386.1,348.1,385.5 M371.2,406.9c-1.9-0.7-4.6-1-6.5-1
		c-5.7,0-10.9,1.2-10.9,11.8c0,9.9,4.3,10,9.4,10c3.2,0,6.4-0.9,7.5-2C370.7,425.7,371.2,414.2,371.2,406.9 M392.5,429.6
		c0,1.4,0.1,1.4-5.5,1.4v-68.4c0-2.6,1.1-2.6,5.5-2.6V429.6"/>
	<path id="XMLID_15_" class="st1" d="M373.7,279.9C424.6,195.3,363,58,250.2,71.9c-101.9,12.6-103.5,119.8-13.7,145.3
		c77.7,22.1,16.1,71.3,17.9,104.2C256.2,354.2,321.9,366.1,373.7,279.9z"/>
	<path id="XMLID_16_" class="st1" d="M198,333.3c23.5-6.2,37.5-30.3,31.4-53.8c-6.1-23.6-30.1-37.7-53.6-31.5s-37.5,30.3-31.4,53.8
		C150.6,325.3,174.6,339.4,198,333.3z"/>
	<path id="XMLID_17_" class="st1" d="M134,168.6c-15.8,1.5-27.4,15.6-25.8,31.5c1.5,15.9,15.6,27.5,31.4,26
		c15.8-1.6,27.4-15.6,25.8-31.5C163.8,178.7,149.8,167,134,168.6z"/>
	<path id="XMLID_18_" class="st2" d="M374,276.1c50.6-84.5-10.7-221.5-122.7-207.6c-101.2,12.6-102.9,119.6-13.6,145
		c77.2,22,15.9,71.2,17.7,104C257.1,350.2,322.4,362.1,374,276.1z"/>
	<path id="XMLID_19_" d="M268.3,330.4c-3.1-5,1.6-10.5,6.4-10.1c7.7,0.7,24.4-0.1,37.5-7.6c32.9-18.7,83.6-109,58.1-165.9
		c-11.4-25.5-17-32.8-28.7-45.2c-2.4-2.5-1-2.4,0.6-1.5c6.4,3.3,17.5,16.3,29,37.4c19.3,35.7,18.3,78.1,11.1,104.7
		c-5,18.5-22.3,60.4-47.6,78.5C309.5,338.8,279.9,349.3,268.3,330.4z"/>
	<path id="XMLID_20_" d="M245.4,213.3c-17.2-5.1-39.5-12.3-52.3-29.2c-9.5-12.5-14.3-26.1-15.5-33.8c-0.4-2.8-0.8-5,0-5.7
		c0.4-0.3,7.1,15,17.1,27.7c10,12.8,24.1,20.3,35.8,23c10.4,2.4,31.9,7.7,39.2,14c7.5,6.4,8.1,20.3,5.6,21.8
		C272.6,232.7,267.5,219.9,245.4,213.3z"/>
	<path id="XMLID_21_" class="st3" d="M280.9,332.9c-0.3,4,4.2,4.7,10.3,3.8c7.8-1.2,14.4-2.1,23.4-6.6c12.2-6.1,24.6-14.9,33.6-26.8
		c27-35.4,36.5-77.2,35.1-83.2c-0.5,5-7,31.1-21.9,54.6c-19.1,30.2-33,46.3-65,54.1C287.5,331,281.4,327.6,280.9,332.9z"/>
	<path id="XMLID_22_" class="st3" d="M210,195.3c3.6,3.1,11.1,7.2,25.8,12.1c17.7,5.8,26.4,10.9,30,13.3c3.8,2.6,6.3,8.3,6.5,3.2
		c0.3-5.1-2.9-9.5-9.9-11.9c-4.7-1.6-12.7-5.3-20.4-6.9c-4.9-1-12.9-2.9-19.8-5C218.5,199.1,214.7,197,210,195.3z"/>
	<path id="XMLID_23_" class="st2" d="M198,329.8c23.4-6.2,37.4-30.3,31.2-53.8c-6.1-23.6-30-37.7-53.4-31.5
		c-23.4,6.2-37.4,30.3-31.2,53.8C150.8,321.9,174.7,336,198,329.8z"/>
	<path id="XMLID_24_" d="M160.9,319.3c34,31.8,85.2-11.9,62.7-50.5c-2.5-4.3-5.8-7.6-4.7-4.3c7.2,22.2,0.5,39.7-11.9,48.8
		c-12.2,8.9-28.9,10.4-42.3,3.3C160.7,314.6,159.1,317.6,160.9,319.3z"/>
	<path id="XMLID_25_" class="st3" d="M187.6,325.8c4.3-0.9,29.5-7.5,35.4-28.4c1.8-6.5,2.2-5.2,1.7-1.7c-2.7,18-19.5,31.3-33.9,31.8
		C187.9,327.9,184,326.6,187.6,325.8z"/>
	<path id="XMLID_26_" class="st2" d="M134.2,165.1c-15.7,1.5-27.3,15.6-25.7,31.5c1.5,15.9,15.5,27.5,31.2,26
		c15.7-1.6,27.3-15.7,25.7-31.5C163.9,175.2,150,163.6,134.2,165.1z"/>
	<path id="XMLID_27_" d="M121.2,215.8c0.2,2,2.9,4.7,7.3,5.9c3.7,1,13.4,3.7,25.8-4.2c12.4-7.9,13.8-29,8.2-35.2
		c-1.7-3.1-4-5.4-2.2-0.4c4.6,12.7-4.3,24.5-11.9,30c-7.6,5.5-17.3,2.9-21.2,1.7C123.1,212.3,121.1,213.7,121.2,215.8z"/>
	<path id="XMLID_28_" class="st3" d="M137.2,218.7c1.1-1,6.9-0.6,12.1-3.4c5.2-2.8,11.3-9,12.4-17.7c0.6-5.1,0.8-3.9,1.1-1.1
		c-0.8,14.6-14.1,22.6-21.7,23.7C139.1,220.4,135.5,220.2,137.2,218.7z"/>
	<path id="XMLID_29_" class="st4" d="M364.4,221.2C385.8,158.8,340.9,64.7,250.1,76C168,86.2,166.7,173.3,239,194
		c81.9,12.5,32.6,74.8,25.6,106.3C258.4,328.5,330.8,333.1,364.4,221.2z"/>
	<path id="XMLID_30_" class="st5" d="M308.2,269.9c-22.2-2.8-54.1,47.8-24,41.8c30.1-5.9-30.1,5.9,0,0c14.5-2.2,26.5-7.3,37.2-19.7
		c14-16.1,34.9-50.9,40.9-73.4c5.1-19,2.5-48.3-2.7-20.7C354.3,226.3,330.4,272.7,308.2,269.9z"/>
	<path id="XMLID_31_" class="st4" d="M159.2,310.4c5.1,0.1,8.2,0.8,13.4,4.5c10.3,4.3,29.2,1.6,37.9-10c8.7-11.6,9-27.6,5.7-37.2
		c-8.1-23.6-42.7-23.2-58.1-3.6C141.4,285.9,154,310.3,159.2,310.4z"/>
	<path id="XMLID_32_" class="st4" d="M113.3,200.9c1,3.3,3.6,8,9.2,8.8c7.4,1.1,8.9,4.4,17.6,2.7c8.7-1.7,15.3-8.9,18-16.9
		c3-11-1.5-16.7-8.3-21.8c-6.8-5.1-21.8-4.5-30.8,3.7C112.5,183.2,110.8,193,113.3,200.9z"/>
	<path id="XMLID_33_" class="st5" d="M142.2,208.2c6.7-1.8,15.5-11,11.2-18c-5.4-8.7-20.5-1.2-21,8.4
		C131.8,208.2,135.2,210.1,142.2,208.2z"/>
	<path id="XMLID_34_" class="st5" d="M192.5,312c5.7-1.5,23.2-8.7,19.9-34.4c-1.7-13-8.7,16.1-21.7,20.5
		C171,304.8,173.2,317.1,192.5,312z"/>
</g>
</svg>
